<svg width="70" height="70" viewBox="0 0 70 70" fill="none" xmlns="http://www.w3.org/2000/svg">
<circle cx="35" cy="35" r="35" fill="#795ACC"/>
<path d="M35 49.8936C38.9501 49.8936 42.7383 48.3245 45.5314 45.5314C48.3245 42.7383 49.8936 38.9501 49.8936 35C49.8936 31.05 48.3245 27.2617 45.5314 24.4686C42.7383 21.6755 38.9501 20.1064 35 20.1064C31.05 20.1064 27.2617 21.6755 24.4686 24.4686C21.6755 27.2617 20.1064 31.05 20.1064 35C20.1064 38.9501 21.6755 42.7383 24.4686 45.5314C27.2617 48.3245 31.05 49.8936 35 49.8936ZM35 16.383C37.4448 16.383 39.8657 16.8645 42.1244 17.8001C44.3832 18.7357 46.4355 20.107 48.1642 21.8358C49.893 23.5645 51.2643 25.6169 52.1999 27.8756C53.1355 30.1343 53.617 32.5552 53.617 35C53.617 39.9376 51.6556 44.6729 48.1642 48.1642C44.6729 51.6556 39.9376 53.617 35 53.617C24.7048 53.617 16.383 45.2394 16.383 35C16.383 30.0625 18.3444 25.3272 21.8358 21.8358C25.3272 18.3444 30.0625 16.383 35 16.383ZM35.9309 25.6915V35.4654L44.3085 40.4362L42.9123 42.7261L33.1383 36.8617V25.6915H35.9309Z" fill="white"/>
</svg>
