<svg width="70" height="70" viewBox="0 0 70 70" fill="none" xmlns="http://www.w3.org/2000/svg">
<circle cx="35" cy="35" r="35" fill="#795ACC"/>
<path d="M14.5213 51.7553V48.0319H55.4787V51.7553H14.5213ZM20.1064 46.1702C19.0825 46.1702 18.2062 45.806 17.4777 45.0774C16.7491 44.3489 16.3842 43.472 16.383 42.4468V21.9681C16.383 20.9442 16.7479 20.0679 17.4777 19.3394C18.2075 18.6108 19.0837 18.2459 20.1064 18.2447H49.8936C50.9176 18.2447 51.7944 18.6096 52.5242 19.3394C53.254 20.0692 53.6183 20.9454 53.617 21.9681V42.4468C53.617 43.4708 53.2528 44.3476 52.5242 45.0774C51.7957 45.8072 50.9188 46.1715 49.8936 46.1702H20.1064ZM20.1064 42.4468H49.8936V21.9681H20.1064V42.4468Z" fill="white"/>
</svg>
