<svg width="70" height="70" viewBox="0 0 70 70" fill="none" xmlns="http://www.w3.org/2000/svg">
<circle cx="35" cy="35" r="35" fill="#795ACC"/>
<path fill-rule="evenodd" clip-rule="evenodd" d="M33.734 24.1574H21.9681C19.9109 24.1574 18.2447 25.9242 18.2447 28.1005V47.8122C18.2447 49.9904 19.9109 51.7553 21.9681 51.7553H42.4468C44.504 51.7553 46.1702 49.9904 46.1702 47.8122V33.384L38.8835 41.0989C38.2472 41.7794 37.4185 42.2496 36.508 42.4468L31.5168 43.5042C28.2588 44.1931 25.388 41.1529 26.0396 37.705L27.0375 32.4197C27.2181 31.4665 27.6612 30.5896 28.3109 29.9027L33.734 24.1574Z" fill="white"/>
<path fill-rule="evenodd" clip-rule="evenodd" d="M49.6069 20.6984C49.4208 20.2208 49.1446 19.7834 48.7933 19.4101C48.4493 19.0441 48.0353 18.751 47.5758 18.5481C47.1228 18.3492 46.6334 18.2465 46.1386 18.2465C45.6438 18.2465 45.1544 18.3492 44.7013 18.5481C44.2418 18.751 43.8278 19.0441 43.4838 19.4101L42.4673 20.4862L47.7769 26.1085L48.7933 25.0306C49.1449 24.6575 49.4211 24.2201 49.6069 23.7423C49.9897 22.7638 49.9897 21.6769 49.6069 20.6984ZM45.1463 28.8955L39.8348 23.2713L30.9415 32.6915C30.8103 32.8313 30.7218 33.0057 30.6864 33.1941L29.6886 38.4814C29.5582 39.1702 30.1335 39.7771 30.7832 39.6394L35.7763 38.5838C35.9583 38.5442 36.1239 38.45 36.2511 38.3138L45.1463 28.8955Z" fill="white"/>
</svg>
