<svg width="70" height="70" viewBox="0 0 70 70" fill="none" xmlns="http://www.w3.org/2000/svg">
<circle cx="35" cy="35" r="35" fill="#795ACC"/>
<path fill-rule="evenodd" clip-rule="evenodd" d="M27.5531 27.9255C27.5531 25.9505 28.3377 24.0564 29.7343 22.6598C31.1308 21.2633 33.0249 20.4787 34.9999 20.4787C36.975 20.4787 38.8691 21.2633 40.2656 22.6598C41.6622 24.0564 42.4468 25.9505 42.4468 27.9255C42.4468 29.9006 41.6622 31.7947 40.2656 33.1912C38.8691 34.5878 36.975 35.3723 34.9999 35.3723C33.0249 35.3723 31.1308 34.5878 29.7343 33.1912C28.3377 31.7947 27.5531 29.9006 27.5531 27.9255ZM27.5531 39.0958C25.0844 39.0958 22.7167 40.0765 20.971 41.8222C19.2253 43.5678 18.2446 45.9355 18.2446 48.4043C18.2446 49.8855 18.8331 51.3061 19.8805 52.3535C20.9279 53.4009 22.3485 53.9894 23.8297 53.9894H46.1702C47.6514 53.9894 49.072 53.4009 50.1194 52.3535C51.1668 51.3061 51.7553 49.8855 51.7553 48.4043C51.7553 45.9355 50.7746 43.5678 49.0289 41.8222C47.2832 40.0765 44.9155 39.0958 42.4468 39.0958H27.5531Z" fill="white"/>
</svg>
